# xmcd
#
# Track frame offsets: 
#        150
#        16980
#        29279
#        39464
#        56027
#        67424
#        78384
#        89668
#        103136
#        112238
#        126902
#
# Disc length: 1932 seconds
#
# Revision: 0
# Processed by: cddbd v1.5.2PL0 Copyright (c) Steve Scherf et al.
# Submitted via: ExactAudioCopy v0.99pb4
#
DISCID=a0078a0b
DTITLE=Licking the Moose - Barleywine Blues
DYEAR=2009
DGENRE=Country
TTITLE0=Devil's bitch
TTITLE1=Spring
TTITLE2=Set Things Straight
TTITLE3=Sister
TTITLE4=The Diaro of 'Crazy' James McCowan
TTITLE5=Happy
TTITLE6=Golddigger
TTITLE7=Come with us
TTITLE8=Squeaky Bed Breakdown
TTITLE9=All for Dad
TTITLE10=Barleywine Blues
EXTD=
EXTT0=
EXTT1=
EXTT2=
EXTT3=
EXTT4=
EXTT5=
EXTT6=
EXTT7=
EXTT8=
EXTT9=
EXTT10=
PLAYORDER=
